<?xml version="1.0" encoding="UTF-8" standalone="no"?>
<svg
   xmlns:dc="http://purl.org/dc/elements/1.1/"
   xmlns:cc="http://creativecommons.org/ns#"
   xmlns:rdf="http://www.w3.org/1999/02/22-rdf-syntax-ns#"
   xmlns:svg="http://www.w3.org/2000/svg"
   xmlns="http://www.w3.org/2000/svg"
   xmlns:sodipodi="http://sodipodi.sourceforge.net/DTD/sodipodi-0.dtd"
   xmlns:inkscape="http://www.inkscape.org/namespaces/inkscape"
   width="1080"
   height="1920"
   viewBox="0 0 285.75001 508"
   version="1.1"
   id="svg8"
   sodipodi:docname="linktree.svg"
   inkscape:version="1.0.1 (3bc2e813f5, 2020-09-07)"
   inkscape:export-filename="/home/seb/Desktop/mochup sebsepia/linktreev2.png"
   inkscape:export-xdpi="100"
   inkscape:export-ydpi="100">
  <defs
     id="defs2">
    <style
       id="style833">.cls-1{fill:#062b31;}</style>
  </defs>
  <sodipodi:namedview
     id="base"
     pagecolor="#ffffff"
     bordercolor="#666666"
     borderopacity="1.0"
     inkscape:pageopacity="0.0"
     inkscape:pageshadow="2"
     inkscape:zoom="0.35355339"
     inkscape:cx="1003.1262"
     inkscape:cy="1044.2464"
     inkscape:document-units="mm"
     inkscape:current-layer="layer1"
     inkscape:document-rotation="0"
     showgrid="false"
     units="px"
     borderlayer="true"
     inkscape:window-width="1920"
     inkscape:window-height="1043"
     inkscape:window-x="0"
     inkscape:window-y="1080"
     inkscape:window-maximized="1"
     showguides="true"
     inkscape:snap-global="false" />
  <metadata
     id="metadata5">
    <rdf:RDF>
      <cc:Work
         rdf:about="">
        <dc:format>image/svg+xml</dc:format>
        <dc:type
           rdf:resource="http://purl.org/dc/dcmitype/StillImage" />
        <dc:title />
      </cc:Work>
    </rdf:RDF>
  </metadata>
  <g
     inkscape:label="Layer 1"
     inkscape:groupmode="layer"
     id="layer1">
    <rect
       style="fill:#e6e3db;fill-opacity:1;stroke:#062b31;stroke-width:6.87917"
       id="rect993"
       width="3079.4414"
       height="1996.2115"
       x="-1448.3368"
       y="-2043.5938" />
    <path
       style="fill:#ffffff;fill-opacity:1;stroke:none;stroke-width:0.2596px;stroke-linecap:butt;stroke-linejoin:miter;stroke-opacity:1"
       d="m 71.695838,466.88604 108.587242,5.34033 -42.12951,9.49401 30.26205,5.34031 -26.70177,6.52715 -67.644512,-10.0874 -32.04215,-16.02102 z"
       id="path837" />
    <path
       id="path889"
       style="fill:#5f5543;fill-opacity:1;stroke:none;stroke-width:0.288483px;stroke-linecap:butt;stroke-linejoin:miter;stroke-opacity:1"
       inkscape:transform-center-x="-25.080187"
       inkscape:transform-center-y="-32.999964"
       d="m 934.73633,835.72852 c -48.17295,4.7845 -92.93369,10.26575 -128.33535,30.68306 l -50.48887,3.76615 c 0,0 -55.73874,13.02477 -82.14482,24.56339 -18.47907,8.07476 -52.69112,30.56943 -52.69112,30.56943 l -22.75781,23.42187 c -28.42057,29.24987 -64.67966,76.72418 -83.63281,104.51958 -23.27762,36.1181 -67.64649,109.7324 -67.64649,109.7324 l -63.76367,42.3652 11.75586,57.9063 32.41797,-40.0313 45.65625,-37.1113 c 0,0 36.04923,-71.5946 57.6543,-105.2656 25.68089,-40.0232 80.27885,-110.03251 88.61718,-119.27937 11.28962,-12.51973 40.24144,-37.60193 63.9668,-49.64453 40.3409,-18.47845 83.12059,-27.52646 126.76563,-32.36524 7.16095,-16.14829 78.71121,-32.30549 125.45898,-39.79297 z"
       transform="scale(0.26458333)"
       sodipodi:nodetypes="cccscsccccccsscccc" />
    <path
       id="path893"
       style="fill:#5f5543;fill-opacity:1;stroke:none;stroke-width:0.133202px;stroke-linecap:butt;stroke-linejoin:miter;stroke-opacity:1"
       inkscape:transform-center-x="38.69556"
       inkscape:transform-center-y="-90.553343"
       d="m 51.912038,6.4258453 -0.80181,0.7037624 c 0,0 16.33681,26.8312283 22.15503,41.3435613 7.42642,18.523638 14.12483,47.950027 14.12483,47.950027 0,0 -0.56053,2.636499 -17.01084,-16.396168 -6.32307,-7.315663 -19.95813,-21.051715 -19.95813,-21.051715 l -26.101436,-18.251328 -0.26953,1.338256 25.278806,18.259516 c 0,0 13.41886,13.266327 19.67526,20.961389 17.03879,20.956854 19.47373,20.723974 19.47373,20.723974 0,0 6.36847,41.40683 9.23111,55.35849 2.09278,10.19958 8.351742,30.09897 8.351742,30.09897 l 1.19599,-31.00397 c 0,0 -0.0411,19.90318 -2.29049,12.30247 -1.09277,-3.69248 -2.11657,-7.38424 -2.74651,-10.20313 -3.420402,-15.30583 -9.676672,-54.73335 -9.676672,-54.73335 l -2.21076,-9.205554 C 88.872278,88.005281 83.604238,69.210707 75.152508,48.32029 69.081558,33.778915 51.912038,6.4258453 51.912038,6.4258453 Z"
       sodipodi:nodetypes="ccscsccccscsccsscccc" />
    <path
       id="path895"
       style="fill:#5f5543;fill-opacity:1;stroke:none;stroke-width:0.109803px;stroke-linecap:butt;stroke-linejoin:miter;stroke-opacity:1"
       d="m 148.53411,124.4234 -18.30585,46.63212 -16.29876,45.68065 c 0,0 -2.19775,4.40798 -3.54451,5.02258 -1.59875,0.7296 -4.75869,-0.65382 -4.75869,-0.65382 l 2.48352,11.01115 c 2.46544,-3.63236 3.8914,-1.60085 7.46512,-9.11225 l 17.18182,-50.70223 17.19652,-46.95279 z"
       inkscape:transform-center-x="-16.782934"
       inkscape:transform-center-y="-74.539759"
       sodipodi:nodetypes="cccscccccc" />
    <path
       id="path897"
       style="fill:#5f5543;fill-opacity:1;stroke:none;stroke-width:0.130837px;stroke-linecap:butt;stroke-linejoin:miter;stroke-opacity:1"
       d="m 91.224831,287.1656 5.19419,9.62175 4.247659,4.34519 0.18737,-13.77262 c -1.618139,-0.7553 -2.764329,2.49406 -4.211319,0.5404 l -4.363697,-4.84065 c -0.725607,0.30994 -1.262915,1.26958 -1.054203,4.10593 z"
       inkscape:transform-center-x="51.414532"
       inkscape:transform-center-y="-105.37253"
       sodipodi:nodetypes="ccccccc" />
    <path
       id="path899"
       style="fill:#5f5543;fill-opacity:1;stroke:none;stroke-width:0.11011px;stroke-linecap:butt;stroke-linejoin:miter;stroke-opacity:1"
       d="m 143.89447,383.1891 0.34996,-2.16789 -1.84162,1.56419 1.74228,-2.18583 -0.19957,-1.1343 c 0,0 -0.43399,1.45742 -3.24738,3.14175 -0.10951,0.0656 0.23363,-1.02519 0.11992,-0.95719 -0.47842,0.28609 -1.44874,1.75125 -2.00132,2.08008 -2.83888,1.68941 -5.5008,7.17386 -10.54404,9.39966 -6.12623,2.70378 -6.44155,-1.64151 -18.28841,0.89238 -4.33042,0.92622 -11.714332,1.9349 -11.714332,1.9349 l 2.823032,15.72586 c 5.448,-2.95148 8.61217,-5.87544 11.01212,-7.38147 2.31188,-1.45076 4.24507,-0.21094 7.52555,-2.26707 1.27686,0.66426 9.33945,0.97558 11.92856,-0.10992 0,0 4.35704,-2.78673 6.06718,-4.6648 0,0 11.79053,-13.21257 11.05561,-15.48527 0,0 -1.59337,-0.37332 -4.78754,1.61492 z"
       inkscape:transform-center-x="-52.263604"
       inkscape:transform-center-y="-24.885496"
       sodipodi:nodetypes="cccccsssssccscccsc" />
    <path
       id="path903"
       style="fill:#5f5543;fill-opacity:1;stroke:none;stroke-width:0.0706034px;stroke-linecap:butt;stroke-linejoin:miter;stroke-opacity:1"
       d="m 203.45811,120.97659 c -15.23483,11.03362 -30.13766,22.23323 -44.93427,33.48594 l -34.72461,36.19382 -0.7927,4.65604 c 0,0 22.74916,-26.39299 35.92208,-38.34389 14.2372,-12.91645 45.4773,-35.46279 45.4773,-35.46279 z"
       inkscape:transform-center-x="-27.805265"
       inkscape:transform-center-y="-38.952992"
       sodipodi:nodetypes="ccccscc" />
    <path
       id="path926"
       style="fill:#5f5543;fill-opacity:1;stroke:none;stroke-width:0.058457px;stroke-linecap:butt;stroke-linejoin:miter;stroke-opacity:1"
       d="m 129.57824,53.805854 -5.80223,35.671071 -9.60516,59.050765 -2.05468,-8.01067 8.84715,-49.13936 6.81184,-37.834703 z"
       inkscape:transform-center-x="-9.6677741"
       inkscape:transform-center-y="-36.046104"
       sodipodi:nodetypes="ccccccc" />
    <path
       id="path930"
       style="fill:#5f5543;fill-opacity:1;stroke:none;stroke-width:0.0530931px;stroke-linecap:butt;stroke-linejoin:miter;stroke-opacity:1"
       d="m 167.59483,120.47311 -9.30524,34.80441 2.21255,-0.52039 7.89533,-33.9063 c -0.35987,-0.38221 -0.20937,-0.46228 -0.80264,-0.37772 z"
       inkscape:transform-center-x="-4.8223352"
       inkscape:transform-center-y="-34.29374"
       sodipodi:nodetypes="ccccc" />
    <path
       id="path934"
       style="fill:#5f5543;fill-opacity:1;stroke:none;stroke-width:0.0536414px;stroke-linecap:butt;stroke-linejoin:miter;stroke-opacity:1"
       d="m 206.46707,216.66983 c -1.88819,-0.55974 -8.86546,-2.93272 -15.27813,-0.33396 -15.29906,3.09742 -17.71097,13.34587 -23.33382,25.22761 -1.65459,2.84183 2.59268,1.15867 -5.89295,7.91178 -4.8067,3.82531 -8.92256,7.38792 -9.50342,6.62019 2.33859,-1.68974 4.60715,-6.34623 7.86249,-10.04341 0,0 2.58224,-3.35721 3.6099,-5.20016 8.25495,-21.05123 16.70874,-25.16626 26.30488,-27.09677 6.69239,-2.65323 13.664,-0.21447 16.52025,0.38224 20.31512,4.79609 23.56279,23.00278 27.96121,45.15781 l -0.86037,0.33964 c -4.9929,-21.89163 -8.34124,-38.24725 -27.39004,-42.96497 z"
       inkscape:transform-center-x="-19.434085"
       inkscape:transform-center-y="19.813028"
       sodipodi:nodetypes="cccscccccccc" />
    <path
       id="path940"
       style="fill:#5f5543;fill-opacity:1;stroke:none;stroke-width:0.0679818px;stroke-linecap:butt;stroke-linejoin:miter;stroke-opacity:1"
       d="m 275.38168,243.6878 c 0,0 -18.21042,-7.31062 -25.79473,-8.98779 -6.51311,-1.4403 -16.78409,-3.63879 -25.31499,-4.40137 -5.97882,-0.53446 -18.00765,-0.11101 -18.00765,-0.11101 l -2.71693,2.74681 26.06977,0.75264 c 0,0 13.18816,1.9261 19.83896,3.27278 7.55799,1.53033 25.58563,7.80018 25.58563,7.80018 z"
       inkscape:transform-center-x="-81.691616"
       inkscape:transform-center-y="-14.643184"
       sodipodi:nodetypes="csscccscc" />
    <text
       xml:space="preserve"
       style="font-style:normal;font-weight:normal;font-size:10.5833px;line-height:1.25;font-family:sans-serif;fill:#000000;fill-opacity:1;stroke:none;stroke-width:0.264583"
       x="190.13594"
       y="112.07882"
       id="text946"><tspan
         sodipodi:role="line"
         id="tspan944"
         x="190.13594"
         y="112.07882"
         style="stroke-width:0.264583" /></text>
    <path
       id="path970"
       style="fill:#5f5543;fill-opacity:1;stroke:none;stroke-width:0.0444619px;stroke-linecap:butt;stroke-linejoin:miter;stroke-opacity:1"
       d="m 257.55645,482.61152 -58.42712,-5.02187 -1.29747,-2.03096 59.07239,6.11912 z"
       inkscape:transform-center-x="-27.518364"
       inkscape:transform-center-y="2.1761997"
       sodipodi:nodetypes="ccccc" />
    <path
       id="path972"
       style="fill:#5f5543;fill-opacity:1;stroke:none;stroke-width:0.0600026px;stroke-linecap:butt;stroke-linejoin:miter;stroke-opacity:1"
       d="m 235.54222,485.41442 -16.29564,-5.7522 -0.32214,-1.45936 16.11296,6.18782 z"
       inkscape:transform-center-x="-35.048189"
       inkscape:transform-center-y="3.111869"
       sodipodi:nodetypes="ccccc" />
    <path
       id="path1046"
       style="fill:#5f5543;fill-opacity:1;stroke:none;stroke-width:0.0530931px;stroke-linecap:butt;stroke-linejoin:miter;stroke-opacity:1"
       d="m 12.022302,55.858387 c 0,0 15.87555,-1.955691 23.83736,-1.699033 2.041206,0.0658 6.070546,0.828283 6.070546,0.828283 l 0.0993,-1.480237 c 0,0 -4.04754,-0.687889 -6.091686,-0.708539 -7.98163,-0.08063 -23.83681,2.285492 -23.83681,2.285492 z"
       inkscape:transform-center-x="13.715309"
       inkscape:transform-center-y="3.1123682"
       sodipodi:nodetypes="csccscc" />
    <path
       style="display:inline;opacity:0.991;fill:#c8beb7;fill-opacity:1;stroke:none;stroke-width:0.376153px;stroke-linecap:butt;stroke-linejoin:miter;stroke-opacity:1"
       d="m 406.15384,432.85657 28.54952,-1.42333 -1.46407,25.97649 -27.08545,-0.71169 z"
       id="path1036" />
    <path
       style="display:inline;opacity:0.991;fill:#c8beb7;fill-opacity:1;stroke:none;stroke-width:0.414921px;stroke-linecap:butt;stroke-linejoin:miter;stroke-opacity:1"
       d="m 445.97342,445.89799 2.01906,24.72425 20.99815,-1.56978 6.05719,-1.56975 -2.42285,-22.36963 -23.42107,-1.56978 z"
       id="path1038" />
    <path
       style="display:inline;opacity:0.991;fill:#c8beb7;fill-opacity:1;stroke:none;stroke-width:0.525239px;stroke-linecap:butt;stroke-linejoin:miter;stroke-opacity:1"
       d="m 336.58033,286.08103 40.39547,-1.96138 -0.66955,32.19493 -10.03735,0.42253 -1.48961,2.19571 -28.19896,0.001 z"
       id="path949"
       sodipodi:nodetypes="ccccccc" />
    <path
       id="path901"
       style="fill:#5f5543;fill-opacity:1;stroke:none;stroke-width:0.141219px;stroke-linecap:butt;stroke-linejoin:miter;stroke-opacity:1"
       d="m 77.717528,364.02381 9.66879,21.80814 7.32319,19.45185 0.83747,-24.54845 6.078552,2.0762 -17.888342,-31.78378 c -11.28389,1.5168 -7.72884,10.2755 -6.01966,12.99604 z"
       inkscape:transform-center-x="51.945286"
       inkscape:transform-center-y="-82.98837"
       sodipodi:nodetypes="ccccccc" />
    <path
       id="path839"
       style="fill:#5f5543;fill-opacity:1;stroke:none;stroke-width:0.259601px;stroke-linecap:butt;stroke-linejoin:miter;stroke-opacity:1"
       d="m 110.06919,108.01935 -2.60376,27.38995 -1.69761,36.09096 c 0,0 -5.43195,77.96745 -9.649092,134.76073 -0.471639,6.35167 -0.595755,17.56792 -0.991552,23.29877 -1.025573,14.84952 -3.416459,16.26113 -4.997667,22.81927 -7.647816,31.71971 -0.319391,10.52906 -1.931281,12.87196 -0.22927,2.49674 -0.925473,5.68782 -1.3237,20.05394 -0.913102,32.94037 -1.747694,13.22567 1.71846,82.99947 -0.58342,2.87221 -1.32384,5.43154 -1.32384,5.43154 3.326842,0.58334 6.654719,1.15855 9.783266,3.2989 0.880647,-0.8236 2.177577,-1.31259 2.141681,-2.87291 l 12.257975,0.43788 -4.96943,-38.54929 c 0,0 -2.59346,-46.08179 -1.69134,-69.12938 0.45143,-11.53315 3.93964,-16.98092 4.82127,-36.48773 2.28129,-50.47532 2.16798,-144.34316 5.48293,-201.54096 0.4085,-7.04852 1.17415,-22.86955 1.17415,-22.86955 0,0 -2.64752,-2.42389 -6.20046,1.99645 z"
       sodipodi:nodetypes="cccssscsccccccssscc" />
    <g
       id="g1132"
       transform="translate(196.31843,11.244634)">
      <path
         class="cls-1"
         d="m 227.20084,424.78101 a 4.776427,4.776427 0 0 1 4.97579,4.56837 l 0.35186,8.24268 a 4.776427,4.776427 0 0 1 -4.56837,4.9758 l -8.24269,0.35186 a 4.776427,4.776427 0 0 1 -4.97579,-4.56837 l -0.35186,-8.24269 a 4.776427,4.776427 0 0 1 4.56837,-4.97579 l 8.24269,-0.35186 m -0.0741,-1.7353 -8.24269,0.35186 a 6.5328495,6.5328495 0 0 0 -6.22959,6.78517 l 0.35186,8.24269 a 6.5328495,6.5328495 0 0 0 6.78517,6.22959 l 8.24269,-0.35186 a 6.5328495,6.5328495 0 0 0 6.22959,-6.78517 l -0.35186,-8.24269 a 6.5328495,6.5328495 0 0 0 -6.78517,-6.22959 z"
         id="path839-9"
         style="stroke:none;stroke-width:0.21711;stroke-opacity:1"
         inkscape:export-xdpi="17.656332"
         inkscape:export-ydpi="17.656332" />
      <path
         class="cls-1"
         d="m 228.83293,426.66711 a 1.2440421,1.2440421 0 1 0 1.29597,1.18985 1.2440421,1.2440421 0 0 0 -1.29597,-1.18985 z"
         id="path841"
         style="stroke:none;stroke-width:0.21711;stroke-opacity:1"
         inkscape:export-xdpi="17.656332"
         inkscape:export-ydpi="17.656332" />
      <path
         class="cls-1"
         d="m 223.35538,430.04538 a 3.8385105,3.8385105 0 1 1 -3.66923,3.99647 3.8428527,3.8428527 0 0 1 3.66923,-3.99647 m -0.0741,-1.7353 a 5.575393,5.575393 0 1 0 5.81886,5.3299 5.575393,5.575393 0 0 0 -5.81886,-5.3299 z"
         id="path843"
         style="stroke:none;stroke-width:0.21711;stroke-opacity:1"
         inkscape:export-xdpi="17.656332"
         inkscape:export-ydpi="17.656332" />
    </g>
    <g
       id="g880"
       transform="matrix(0.04281295,-0.00324725,0.00324725,0.04281295,419.22131,433.6929)"
       style="fill:none;fill-opacity:1;stroke:#062b31;stroke-width:30.1264;stroke-miterlimit:4;stroke-dasharray:none;stroke-opacity:1"
       inkscape:export-xdpi="17.656332"
       inkscape:export-ydpi="17.656332">
      <g
         id="_x38_3-facebook"
         style="fill:none;fill-opacity:1;stroke:#062b31;stroke-width:30.1264;stroke-miterlimit:4;stroke-dasharray:none;stroke-opacity:1">
        <g
           id="g862"
           style="fill:none;fill-opacity:1;stroke:#062b31;stroke-width:30.1264;stroke-miterlimit:4;stroke-dasharray:none;stroke-opacity:1">
          <g
             id="g860"
             transform="translate(644.57137,372.57151)"
             style="fill:none;fill-opacity:1;stroke:#062b31;stroke-width:30.1264;stroke-miterlimit:4;stroke-dasharray:none;stroke-opacity:1">
            <path
               id="path856"
               style="fill:none;fill-opacity:1;stroke:#062b31;stroke-width:30.1264;stroke-miterlimit:4;stroke-dasharray:none;stroke-opacity:1"
               d="m 977.04492,247.60742 c -32.893,0 -59.64844,26.8315 -59.64844,59.8125 v 358.8711 c 0,32.98499 26.75644,59.81445 59.64844,59.81445 H 1156.002 V 561.62305 h -59.6504 v -74.76563 h 59.6504 v -59.8125 c 0,-49.557 40.0526,-89.71875 89.4726,-89.71875 h 59.6543 v 74.76758 h -29.8301 c -16.459,0 -29.8242,-1.55883 -29.8242,14.95117 v 59.8125 h 74.5645 l -29.8262,74.76563 h -44.7383 v 164.48242 h 89.4746 c 32.898,0 59.6543,-26.82946 59.6543,-59.81445 v -358.8711 c 10e-4,-32.982 -26.7553,-59.8125 -59.6543,-59.8125 z"
               transform="translate(-899.99995,-230.85722)" />
          </g>
        </g>
      </g>
      <g
         id="Layer_1"
         style="fill:none;fill-opacity:1;stroke:#062b31;stroke-width:30.1264;stroke-miterlimit:4;stroke-dasharray:none;stroke-opacity:1" />
    </g>
    <g
       id="comp_x5F_27-artstation"
       style="fill:#062b31;fill-opacity:1;stroke:none;stroke-width:0;stroke-miterlimit:4;stroke-dasharray:none"
       transform="matrix(0.06773817,0,0,0.06415802,338.19886,285.23469)">
      <g
         id="g891"
         transform="translate(3.6728945,-7.3456956)"
         style="fill:#062b31;fill-opacity:1;stroke:none;stroke-width:0;stroke-miterlimit:4;stroke-dasharray:none">
        <g
           id="g889"
           style="fill:#062b31;fill-opacity:1;stroke:none;stroke-width:0;stroke-miterlimit:4;stroke-dasharray:none">
          <g
             id="g887"
             style="fill:#062b31;fill-opacity:1;stroke:none;stroke-width:0;stroke-miterlimit:4;stroke-dasharray:none">
            <path
               id="path885"
               style="fill:#062b31;fill-opacity:1;stroke:none;stroke-width:0;stroke-miterlimit:4;stroke-dasharray:none"
               d="M 354.099,448.774 H 121.224 c -19.587,0 -37.278,-10.842 -46.241,-28.313 L 40.03,360.066 c -1.79,-3.094 -1.793,-6.908 -0.007,-10.004 1.786,-3.097 5.088,-5.005 8.663,-5.005 h 257.108 c 3.573,0 6.876,1.907 8.661,5.002 l 48.305,83.717 c 1.786,3.095 1.785,6.906 -0.002,9.999 -1.786,3.094 -5.087,4.999 -8.659,4.999 z m -288.072,-83.716 26.4,45.617 c 0.094,0.162 0.183,0.326 0.268,0.494 5.495,10.859 16.427,17.605 28.529,17.605 h 215.56 L 300.019,365.057 H 66.027 Z m 355.632,83.389 c -0.003,0 -0.006,0 -0.009,0 -3.576,-0.003 -6.879,-1.916 -8.661,-5.017 L 203.043,78.209 c -1.779,-3.095 -1.773,-6.902 0.014,-9.992 1.788,-3.089 5.086,-4.992 8.656,-4.992 h 72.131 c 19.209,0 36.743,10.511 45.8,27.441 l 135.41,236.846 c 11.522,18.016 11.042,38.659 -1.361,58.16 l -0.225,0.355 -33.148,57.419 c -1.787,3.095 -5.089,5.001 -8.661,5.001 z M 228.996,83.226 l 192.682,335.188 24.53,-42.491 c 0.021,-0.036 0.042,-0.072 0.063,-0.109 0.124,-0.207 0.308,-0.501 0.545,-0.874 8.253,-12.976 8.686,-25.36 1.286,-36.811 -0.099,-0.152 -0.193,-0.307 -0.283,-0.465 l -135.612,-237.2 c -0.052,-0.091 -0.102,-0.182 -0.15,-0.274 -5.556,-10.464 -16.366,-16.965 -28.213,-16.965 h -54.848 z m 42.445,222.347 H 82.955 c -3.573,0 -6.875,-1.906 -8.661,-5.001 -1.786,-3.094 -1.786,-6.906 0.001,-10 l 94.244,-163.189 c 1.787,-3.093 5.087,-4.999 8.66,-4.999 3.573,0 6.873,1.906 8.66,4.999 l 94.243,163.189 c 1.786,3.094 1.787,6.906 0,10.001 -1.787,3.094 -5.087,5 -8.661,5 z m -171.163,-20 H 254.119 L 177.199,152.38 Z" />
          </g>
        </g>
      </g>
    </g>
    <g
       id="Layer_1-3"
       style="fill:#062b31;fill-opacity:1;stroke:none;stroke-width:0;stroke-miterlimit:4;stroke-dasharray:none"
       transform="matrix(0.05166,0,0,0.05166,141.49626,273.77285)" />
    <path
       style="display:inline;opacity:0.991;fill:#c8beb7;fill-opacity:1;stroke:none;stroke-width:0.52524px;stroke-linecap:butt;stroke-linejoin:miter;stroke-opacity:1"
       d="m 390.76131,186.13118 40.39547,-1.96138 -0.66955,32.19493 -10.03735,0.42253 -1.48961,2.19571 -28.19896,0.001 z"
       id="path949-7"
       sodipodi:nodetypes="ccccccc" />
    <g
       id="g970"
       transform="matrix(0.06416974,0,0,0.06416974,397.7931,188.5764)"
       style="fill:none;stroke:#062b31;stroke-width:19.1447;stroke-miterlimit:4;stroke-dasharray:none;stroke-opacity:1">
      <path
         style="fill:none;stroke:#062b31;stroke-width:19.1447;stroke-miterlimit:4;stroke-dasharray:none;stroke-opacity:1"
         d="M 347.445,0 H 34.555 C 15.471,0 0,15.471 0,34.555 V 347.444 C 0,366.529 15.471,382 34.555,382 H 347.444 C 366.529,382 382,366.529 382,347.444 V 34.555 C 382,15.471 366.529,0 347.445,0 Z M 118.207,329.844 c 0,5.554 -4.502,10.056 -10.056,10.056 H 65.345 c -5.554,0 -10.056,-4.502 -10.056,-10.056 V 150.403 c 0,-5.554 4.502,-10.056 10.056,-10.056 h 42.806 c 5.554,0 10.056,4.502 10.056,10.056 z M 86.748,123.432 c -22.459,0 -40.666,-18.207 -40.666,-40.666 0,-22.459 18.207,-40.666 40.666,-40.666 22.459,0 40.666,18.207 40.666,40.666 0,22.459 -18.206,40.666 -40.666,40.666 z M 341.91,330.654 c 0,5.106 -4.14,9.246 -9.246,9.246 H 286.73 c -5.106,0 -9.246,-4.14 -9.246,-9.246 v -84.168 c 0,-12.556 3.683,-55.021 -32.813,-55.021 -28.309,0 -34.051,29.066 -35.204,42.11 v 97.079 c 0,5.106 -4.139,9.246 -9.246,9.246 h -44.426 c -5.106,0 -9.246,-4.14 -9.246,-9.246 V 149.593 c 0,-5.106 4.14,-9.246 9.246,-9.246 h 44.426 c 5.106,0 9.246,4.14 9.246,9.246 v 15.655 c 10.497,-15.753 26.097,-27.912 59.312,-27.912 73.552,0 73.131,68.716 73.131,106.472 z"
         id="path915" />
      <g
         id="g917"
         style="fill:none;stroke:#062b31;stroke-width:19.1447;stroke-miterlimit:4;stroke-dasharray:none;stroke-opacity:1" />
      <g
         id="g919"
         style="fill:none;stroke:#062b31;stroke-width:19.1447;stroke-miterlimit:4;stroke-dasharray:none;stroke-opacity:1" />
      <g
         id="g921"
         style="fill:none;stroke:#062b31;stroke-width:19.1447;stroke-miterlimit:4;stroke-dasharray:none;stroke-opacity:1" />
      <g
         id="g923"
         style="fill:none;stroke:#062b31;stroke-width:19.1447;stroke-miterlimit:4;stroke-dasharray:none;stroke-opacity:1" />
      <g
         id="g925"
         style="fill:none;stroke:#062b31;stroke-width:19.1447;stroke-miterlimit:4;stroke-dasharray:none;stroke-opacity:1" />
      <g
         id="g927"
         style="fill:none;stroke:#062b31;stroke-width:19.1447;stroke-miterlimit:4;stroke-dasharray:none;stroke-opacity:1" />
      <g
         id="g929"
         style="fill:none;stroke:#062b31;stroke-width:19.1447;stroke-miterlimit:4;stroke-dasharray:none;stroke-opacity:1" />
      <g
         id="g931"
         style="fill:none;stroke:#062b31;stroke-width:19.1447;stroke-miterlimit:4;stroke-dasharray:none;stroke-opacity:1" />
      <g
         id="g933"
         style="fill:none;stroke:#062b31;stroke-width:19.1447;stroke-miterlimit:4;stroke-dasharray:none;stroke-opacity:1" />
      <g
         id="g935"
         style="fill:none;stroke:#062b31;stroke-width:19.1447;stroke-miterlimit:4;stroke-dasharray:none;stroke-opacity:1" />
      <g
         id="g937"
         style="fill:none;stroke:#062b31;stroke-width:19.1447;stroke-miterlimit:4;stroke-dasharray:none;stroke-opacity:1" />
      <g
         id="g939"
         style="fill:none;stroke:#062b31;stroke-width:19.1447;stroke-miterlimit:4;stroke-dasharray:none;stroke-opacity:1" />
      <g
         id="g941"
         style="fill:none;stroke:#062b31;stroke-width:19.1447;stroke-miterlimit:4;stroke-dasharray:none;stroke-opacity:1" />
      <g
         id="g943"
         style="fill:none;stroke:#062b31;stroke-width:19.1447;stroke-miterlimit:4;stroke-dasharray:none;stroke-opacity:1" />
      <g
         id="g945"
         style="fill:none;stroke:#062b31;stroke-width:19.1447;stroke-miterlimit:4;stroke-dasharray:none;stroke-opacity:1" />
    </g>
    <ellipse
       style="fill:#5f5543;fill-opacity:1;stroke:none;stroke-width:13.0157"
       id="path995"
       cy="305.31049"
       cx="-96.09774"
       transform="scale(-1,1)"
       rx="3.2726018"
       ry="5.3990927" />
    <ellipse
       style="fill:#5f5543;fill-opacity:1;stroke:none;stroke-width:15.3192"
       id="path995-3"
       cy="429.89185"
       cx="-106.65698"
       rx="5.1154885"
       ry="4.7847686"
       transform="scale(-1,1)" />
    <path
       style="fill:#5f5543;fill-opacity:1;stroke:none;stroke-width:0.264583px;stroke-linecap:butt;stroke-linejoin:miter;stroke-opacity:1"
       d="m 111.26476,430.27512 c 0.42891,3.23747 -0.006,3.03946 -1.09973,5.41349 -0.55538,1.20557 -0.94686,2.46424 -1.32335,3.73525 -0.73595,2.48449 -0.99373,5.0265 -1.52869,7.54991 -0.25827,1.21828 -0.52607,2.41681 -0.69818,3.65109 -0.005,0.0362 -0.11039,0.8508 -0.14602,0.8508 -0.38275,0 -0.66138,-3.51108 -0.69361,-3.87546 -0.28119,-3.17939 -0.0305,-6.36765 -0.28291,-9.5414 -0.0716,-0.89977 -0.70324,-4.23487 -0.2373,-5.03018 0.0331,-0.0565 -0.0221,0.13655 0.005,0.19634 0.10896,0.24416 0.24076,0.38926 0.46544,0.50956"
       id="path1022" />
    <path
       id="path1026"
       style="fill:#5f5543;fill-opacity:1;stroke:none;stroke-width:0.222165px;stroke-linecap:butt;stroke-linejoin:miter;stroke-opacity:1"
       d="m 161.94835,390.02856 c 0,2.62813 2.39109,3.42547 2.54452,7.44044 0.12527,4.0408 1.02927,7.79069 1.14939,11.83188 0.13107,8.73785 0.65566,10.76797 0.70988,11.96713 0.004,0.0896 0.007,0.17927 0.0107,0.2689 1.73616,9.189 5.54909,17.63713 8.31108,26.9671 1.1743,4.06928 2.45399,16.59346 2.53771,20.72909 0.009,0.48694 0.20543,1.34654 0.0579,1.82906 -1.03486,1.99184 -5.25844,0.17281 -5.21546,-0.81193 -0.7818,-4.6222 -2.01788,-16.07216 -3.59314,-20.79422 -2.39189,-9.9674 -8.40356,-18.28084 -9.80625,-27.17409 0.17966,-10.65577 -1.12011,-18.21253 -3.08447,-25.64716 7.6e-4,-0.0299 0.003,-0.0723 0.005,-0.105 -0.0654,-0.14982 -0.10698,-0.31358 -0.20568,-0.44278 -2.28732,-2.99417 -2.03705,-3.20428 -5.88459,-4.88285 l -1.27683,-0.64373 c -1.06719,-3.14823 -2.03546,-6.28188 1.89681,-8.6927 1.89689,0.20123 0.83944,-0.10736 2.14518,0.0747 1.68664,0.22042 2.25787,0.71031 2.65751,1.00062 0,0 7.04133,4.17611 7.04133,7.08552 z"
       sodipodi:nodetypes="sccccccccccccsccccsss" />
    <path
       id="path930-6"
       style="fill:#5f5543;fill-opacity:1;stroke:none;stroke-width:0.0530931px;stroke-linecap:butt;stroke-linejoin:miter;stroke-opacity:1"
       d="m 128.65657,77.63687 -5.4819,5.825174 0.45914,2.267269 5.63379,-7.44937 c -0.19678,-0.486694 -0.0275,-0.506738 -0.61103,-0.643073 z"
       inkscape:transform-center-x="-8.0970309"
       inkscape:transform-center-y="-9.178573"
       sodipodi:nodetypes="ccccc" />
    <ellipse
       style="fill:#5f5543;fill-opacity:1;stroke:none;stroke-width:0.605477"
       id="path1096"
       cx="154.03951"
       cy="256.32379"
       rx="2.5532787"
       ry="3.0721602" />
  </g>
</svg>
